<?xml version="1.0" encoding="UTF-8" standalone="no"?>
<!-- Created with Inkscape (http://www.inkscape.org/) -->

<svg
   xmlns:dc="http://purl.org/dc/elements/1.1/"
   xmlns:cc="http://creativecommons.org/ns#"
   xmlns:rdf="http://www.w3.org/1999/02/22-rdf-syntax-ns#"
   xmlns:svg="http://www.w3.org/2000/svg"
   xmlns="http://www.w3.org/2000/svg"
   xmlns:sodipodi="http://sodipodi.sourceforge.net/DTD/sodipodi-0.dtd"
   xmlns:inkscape="http://www.inkscape.org/namespaces/inkscape"
   width="500"
   height="500"
   id="svg2"
   version="1.1"
   inkscape:version="0.48.2 r9819"
   sodipodi:docname="Portale comunità.svg">
  <defs
     id="defs4" />
  <sodipodi:namedview
     id="base"
     pagecolor="#ffffff"
     bordercolor="#666666"
     borderopacity="1.0"
     inkscape:pageopacity="0.0"
     inkscape:pageshadow="2"
     inkscape:zoom="0.35"
     inkscape:cx="172.78197"
     inkscape:cy="288.07717"
     inkscape:document-units="px"
     inkscape:current-layer="layer1"
     showgrid="false"
     inkscape:window-width="1366"
     inkscape:window-height="706"
     inkscape:window-x="-8"
     inkscape:window-y="-8"
     inkscape:window-maximized="1" />
  <metadata
     id="metadata7">
    <rdf:RDF>
      <cc:Work
         rdf:about="">
        <dc:format>image/svg+xml</dc:format>
        <dc:type
           rdf:resource="http://purl.org/dc/dcmitype/StillImage" />
        <dc:title></dc:title>
      </cc:Work>
    </rdf:RDF>
  </metadata>
  <g
     inkscape:label="Livello 1"
     inkscape:groupmode="layer"
     id="layer1"
     transform="translate(0,-552.36218)">
    <g
       transform="matrix(4.8320929,0,0,4.4241986,-484.4945,-310.22843)"
       style="font-size:150px;font-style:oblique;font-variant:normal;font-weight:bold;font-stretch:normal;line-height:125%;letter-spacing:0px;word-spacing:0px;fill:#ffffff;fill-opacity:1;stroke:none;font-family:Arial;-inkscape-font-specification:Sans Oblique;opacity:0.80000000000000004"
       id="text3828">
      <path
         d="m 160.71917,278.02875 -18.67676,0 c -0.0489,-2.68552 -0.0733,-4.32126 -0.0732,-4.90723 -4e-5,-6.05465 1.00094,-11.03511 3.00293,-14.94141 2.00191,-3.90619 6.00581,-8.30072 12.01172,-13.18359 6.0058,-4.88275 9.59466,-8.08098 10.7666,-9.59473 1.80658,-2.3925 2.7099,-5.02922 2.70996,-7.91015 -6e-5,-4.00383 -1.59918,-7.434 -4.79736,-10.29053 -3.1983,-2.85635 -7.50738,-4.28457 -12.92725,-4.28467 -5.22465,1e-4 -9.59476,1.48935 -13.11035,4.46778 -3.51566,2.9786 -5.93265,7.51961 -7.25098,13.62304 L 113.478,228.66351 c 0.5371,-8.74015 4.26024,-16.16201 11.16943,-22.26562 6.90916,-6.10341 15.97897,-9.15517 27.20947,-9.15528 11.81635,1.1e-4 21.21576,3.08849 28.19825,9.26514 6.98234,6.17685 10.47355,13.36679 10.47363,21.56983 -8e-5,4.54108 -1.28182,8.83796 -3.84521,12.89062 -2.56356,4.0528 -8.04451,9.57037 -16.44288,16.55274 -4.34576,3.61332 -7.04351,6.51859 -8.09326,8.71582 -1.04986,2.1973 -1.52593,6.12796 -1.42822,11.79199 z m -18.67676,27.68554 0,-20.58105 20.58106,0 0,20.58105 z"
         style="font-style:normal;fill:#ffffff;-inkscape-font-specification:Arial Bold"
         id="path3833"
         inkscape:connector-curvature="0" />
    </g>
  </g>
</svg>
